PathFileType	4	(X/Y/Z)	 s04c0401.trc
DataRate	CameraRate	NumFrames	NumMarkers	Units	OrigDataRate	OrigDataStartFrame	OrigNumFrames
200	200	4	50	mm	200	1501	2000
Frame#	Time	racr			lacr			c7			jug			rlel			rdr			llel			ldr			s2			lic			ric			lasi			rasi			rpsi			lpsi			rgt			lgt			rth1			rth2			rth3			rth4			rlfc			rmfc			rsh1			rsh2			rsh3			rsh4			rlmal			rmmal			rcal			rtoe			rmt5			lth1			lth2			lth4			lth3			llfc			lmfc			lsh1			lsh2			lsh3			lsh4			llmal			lmmal			lcal			ltoe			lmt5			SBIKE			LBIKE			RBIKE			
		X1	Y1	Z1	X2	Y2	Z2	X3	Y3	Z3	X4	Y4	Z4	X5	Y5	Z5	X6	Y6	Z6	X7	Y7	Z7	X8	Y8	Z8	X9	Y9	Z9	X10	Y10	Z10	X11	Y11	Z11	X12	Y12	Z12	X13	Y13	Z13	X14	Y14	Z14	X15	Y15	Z15	X16	Y16	Z16	X17	Y17	Z17	X18	Y18	Z18	X19	Y19	Z19	X20	Y20	Z20	X21	Y21	Z21	X22	Y22	Z22	X23	Y23	Z23	X24	Y24	Z24	X25	Y25	Z25	X26	Y26	Z26	X27	Y27	Z27	X28	Y28	Z28	X29	Y29	Z29	X30	Y30	Z30	X31	Y31	Z31	X32	Y32	Z32	X33	Y33	Z33	X34	Y34	Z34	X35	Y35	Z35	X36	Y36	Z36	X37	Y37	Z37	X38	Y38	Z38	X39	Y39	Z39	X40	Y40	Z40	X41	Y41	Z41	X42	Y42	Z42	X43	Y43	Z43	X44	Y44	Z44	X45	Y45	Z45	X46	Y46	Z46	X47	Y47	Z47	X48	Y48	Z48	X49	Y49	Z49	X50	Y50	Z50	
1501	7.5050	840.319181	1281.002267	-75.464910	852.543769	1247.096076	-410.001558	867.429832	1344.010152	-249.311416	810.592122	1205.946282	-244.043000	571.372497	1160.343837	72.650274	702.378225	941.046771	-44.233326	612.514384	1170.225712	-583.635897	700.528079	948.900647	-478.389231	267.151425	1282.634187	-270.944272	420.691542	1231.410906	-423.989999	411.539493	1266.198060	-103.091528	446.126754	1176.514613	-377.662547	434.332872	1197.721086	-138.480647	304.933603	1321.528639	-229.766659	309.341536	1315.005309	-307.234855	352.697620	1221.544358	-80.353727	347.847054	1145.947254	-434.090736	424.162545	1076.695382	-53.499776	485.116443	1013.081234	-52.686134	507.638948	930.702440	-49.051431	513.862677	1028.360232	-71.693384	551.354496	795.813765	-68.300078	542.975129	784.688310	-184.846904	437.549584	746.758532	-56.378614	369.357109	689.742746	-79.083174	285.276653	680.680027	-95.330410	388.214170	662.847910	-99.614613	155.575089	606.490076	-118.952040	183.617419	593.649137	-200.623795	96.351433	642.653665	-165.250665	242.820015	378.722511	-151.966273	186.005295	423.594137	-98.917800	361.782314	1054.329309	-445.835305	403.838042	978.007180	-446.705114	438.722115	987.349134	-440.343020	401.997789	889.250664	-442.640736	428.378169	726.075268	-425.714056	440.715947	696.652857	-314.795163	393.925978	602.366533	-450.320830	384.744045	517.685047	-433.488119	335.731370	443.825903	-437.530861	410.845177	510.112418	-403.662390	283.727928	305.377756	-440.163532	276.541569	306.542119	-351.139109	200.981485	310.397701	-404.641951	479.780983	189.970705	-396.151393	403.562493	182.726365	-461.459648	-177.050758	938.483732	-280.091295	-3.080946	85.654872	-484.778414	-14.978461	80.577226	-84.333984	
1502	7.5100	840.681515	1281.596224	-73.878578	852.628848	1247.034482	-408.171194	867.207282	1344.272109	-248.242236	810.659450	1205.980435	-242.239926	571.904169	1159.973615	73.839421	702.382288	940.974320	-44.233868	613.538623	1170.529755	-583.415569	700.519997	948.535352	-477.828030	267.227592	1281.353250	-273.330964	422.416718	1228.447563	-424.180140	410.046640	1266.855167	-103.991504	446.933680	1174.247654	-377.260806	433.281305	1198.262716	-138.604130	304.659474	1320.801822	-232.222244	309.872089	1313.410798	-309.379626	351.555861	1222.373438	-81.442050	347.822448	1142.836119	-434.062602	425.625682	1079.175945	-54.156988	488.557595	1016.891998	-53.385389	512.543721	935.196836	-49.391430	515.855915	1033.444028	-72.828285	558.888374	800.981157	-68.373635	549.498703	789.325633	-184.436186	445.235625	752.422983	-56.508708	376.679709	695.825483	-79.117811	292.471871	687.233653	-95.302646	395.368547	668.876950	-99.648984	162.518364	613.574332	-118.940259	190.147462	600.855622	-201.063879	102.736236	649.192147	-165.217263	253.863599	388.214431	-150.492897	194.645289	431.135655	-98.684950	359.215387	1051.025272	-446.235320	399.223332	973.650688	-447.202708	434.354499	982.057430	-440.824360	394.956848	884.875569	-443.012164	417.640179	721.492018	-426.172260	429.606688	691.883636	-314.783946	383.256212	597.597345	-450.565387	374.850393	512.787500	-433.938540	326.356276	438.629902	-437.883812	401.166427	505.468656	-404.313569	275.978733	299.446454	-440.459178	268.988432	300.283640	-351.498405	193.843044	304.960410	-404.832640	471.642031	182.083597	-396.435495	395.339021	175.465431	-461.626881	-177.071525	938.526947	-280.026951	-3.095174	85.634109	-484.777352	-14.969122	80.570856	-84.304786	
1503	7.5150	840.904039	1282.024316	-72.326965	852.743931	1246.908252	-406.257066	867.051804	1344.407570	-247.138370	810.728367	1205.873238	-240.349901	572.340353	1159.442882	75.092016	702.361770	940.868069	-44.125963	614.582118	1170.795105	-583.050256	700.534305	948.138728	-477.045152	267.383444	1280.082994	-275.752456	424.229528	1225.390010	-424.258252	408.521621	1267.484715	-104.863811	447.708165	1171.816171	-376.933035	432.258145	1198.722398	-138.675888	304.496431	1319.898814	-234.820979	310.420179	1311.657018	-311.799413	350.337523	1223.206559	-82.569259	347.811615	1139.668440	-434.056852	427.195158	1082.345029	-54.165606	491.467039	1020.879459	-54.176303	517.441824	939.859607	-49.816657	518.473618	1038.112152	-73.514541	566.420667	806.275411	-68.561448	557.424255	794.278230	-184.227559	453.011652	758.076345	-56.663765	384.207538	701.670801	-79.211213	299.954595	693.441460	-95.238369	402.749054	674.683819	-99.779913	169.687558	620.116834	-118.934768	197.661679	607.350205	-200.653361	109.329535	655.200697	-165.025959	260.945710	394.350186	-151.694260	203.628872	438.253124	-98.643431	356.763189	1048.031621	-446.663627	394.793097	969.681401	-447.846758	430.123028	977.174587	-441.337914	388.236538	881.036839	-443.587391	407.205762	717.322510	-426.559421	418.000985	687.811406	-315.314549	372.709541	593.395936	-450.887631	365.031213	508.505075	-434.363734	317.155873	433.931480	-438.195492	391.422218	501.477499	-405.130854	268.059432	294.221453	-440.617317	261.143445	294.771374	-351.944587	186.479049	300.158946	-404.864072	463.161040	174.654677	-396.724418	386.751780	168.795676	-461.832381	-177.252536	938.486908	-280.161339	-3.095318	85.642877	-484.767975	-14.954043	80.538663	-84.312396	
1504	7.5200	841.100989	1282.328794	-70.700309	852.875675	1246.785478	-404.304307	866.677828	1344.465125	-246.055867	810.663287	1205.751968	-238.584015	572.660487	1158.929974	76.339528	702.357079	940.760708	-43.881295	615.550334	1171.030245	-582.575484	700.518526	947.840025	-476.215119	267.319148	1279.169541	-278.596924	426.109951	1222.195963	-424.121262	406.961664	1268.180214	-105.666068	448.486213	1168.978830	-376.480601	431.042961	1199.298872	-138.792036	304.388456	1318.884181	-237.502969	310.845275	1309.853821	-314.589315	349.136521	1224.084876	-83.585319	348.103609	1136.751148	-434.123783	428.963899	1084.640488	-55.443912	494.460947	1024.902134	-55.636477	522.255270	944.575342	-50.370212	521.160545	1042.849860	-74.221896	573.975299	811.641972	-68.850209	564.729745	799.326312	-184.989365	460.797573	763.534428	-56.951135	391.857366	707.327845	-79.352778	307.569872	699.279084	-95.198910	410.267431	680.303926	-100.032229	177.153913	626.067019	-118.807663	205.011921	613.576659	-200.588631	116.006835	660.542892	-165.107536	270.524603	401.307220	-151.591509	212.724639	444.626347	-98.615024	354.425711	1045.497760	-447.130739	390.539836	966.200344	-448.546869	426.044090	972.812425	-441.807313	381.671221	877.738786	-444.776871	396.648582	713.763838	-427.244002	406.315550	684.395834	-316.202117	362.224974	589.357093	-451.027517	355.394548	504.507271	-434.795376	307.998659	429.640925	-438.436303	382.060687	497.436442	-405.293552	259.934623	289.577010	-440.757744	253.294397	289.793557	-352.288017	178.891708	296.120625	-404.853322	454.412197	167.699647	-396.964377	377.837506	162.663327	-462.039009	-177.244886	938.481021	-280.151297	-3.094744	85.635611	-484.775948	-14.980083	80.570886	-84.315614	
